<svg xmlns="http://www.w3.org/2000/svg" width="150" height="60" preserveAspectRatio="xMidYMid meet" version="1.2" viewBox="0 0 112.5 45" zoomAndPan="magnify"><defs><clipPath id="778ad5bf0b"><path d="M0 .098h112.004v44.8H0Zm0 0"/></clipPath></defs><g id="9dc6446fd3"><g clip-path="url(#778ad5bf0b)" clip-rule="nonzero"><path d="M0 .098h112.004v44.804H0Zm0 0" style="stroke:none;fill-rule:nonzero;fill:#fff;fill-opacity:1"/><path d="M0 .098h112.004v44.804H0Zm0 0" style="stroke:none;fill-rule:nonzero;fill:#fff;fill-opacity:1"/></g><g style="fill:#00ced1;fill-opacity:1"><g transform="translate(29.354 36.852)"><path d="M4 0v-15.89H.453v-5.235H4v-2.766c0-1.914.547-3.422 1.64-4.515 1.102-1.102 2.614-1.657 4.532-1.657h6.422v5.22h-5.016c-.336 0-.621.12-.86.359-.23.23-.343.511-.343.843v2.516h5.313v5.234h-5.313V0Zm0 0" style="stroke:none"/></g></g><g style="fill:#00ced1;fill-opacity:1"><g transform="translate(41.71 36.852)"><path d="M10.578.5C9.128.5 7.781.21 6.531-.36A7.065 7.065 0 0 1 3.516-3C2.766-4.188 2.39-5.672 2.39-7.453v-13.672h6.375v14.5c0 .324.082.625.25.906.164.274.382.492.656.657.281.167.582.25.906.25.332 0 .633-.083.906-.25.282-.165.5-.383.657-.657.164-.281.25-.582.25-.906v-7.047c0-1.707.359-3.148 1.078-4.328a7.046 7.046 0 0 1 2.937-2.688c1.25-.625 2.66-.937 4.235-.937 1.562 0 2.957.313 4.187.938A6.983 6.983 0 0 1 27.75-18c.719 1.18 1.078 2.621 1.078 4.328v7.047c0 .324.082.625.25.906.164.274.39.492.672.657.29.167.602.25.938.25.32 0 .617-.083.89-.25.281-.165.504-.383.672-.657.164-.281.25-.582.25-.906v-14.5h6.375v13.672c0 1.781-.383 3.266-1.14 4.453a6.98 6.98 0 0 1-3 2.64c-1.243.57-2.59.86-4.047.86-1.461 0-2.813-.29-4.063-.86A7.174 7.174 0 0 1 23.594-3c-.762-1.188-1.14-2.672-1.14-4.453v-7c0-.363-.087-.68-.25-.953a1.965 1.965 0 0 0-.673-.656 1.704 1.704 0 0 0-.89-.25c-.336 0-.649.085-.938.25a1.931 1.931 0 0 0-.672.656 1.78 1.78 0 0 0-.25.953v7c0 1.781-.383 3.266-1.14 4.453a6.98 6.98 0 0 1-3 2.64c-1.25.57-2.606.86-4.063.86Zm0 0" style="stroke:none"/></g></g></g></svg>