<?xml version="1.0" encoding="UTF-8"?> <svg xmlns="http://www.w3.org/2000/svg" width="100" height="54" viewBox="0 0 100 54" fill="none"><mask id="mask0_1123_30" style="mask-type:luminance" maskUnits="userSpaceOnUse" x="0" y="0" width="100" height="54"><path d="M0 0H99.9999V54H0V0Z" fill="white"></path></mask><g mask="url(#mask0_1123_30)"><path d="M20.7724 35.9906V14.5625C20.7724 12.1529 21.9844 10.6469 23.9003 10.6469V10.2167H13.7346V10.6469C15.6504 10.6469 16.8625 12.1529 16.8625 14.5625V21.4901H9.84214V21.9202H16.8625V35.9906C16.8625 38.4002 15.6504 39.9062 13.7346 39.9062V40.3364H23.9003V39.9062C21.9844 39.9062 20.7724 38.4002 20.7724 35.9906ZM10.2154 10.6469V10.2167H0.0493164V10.6469C1.9651 10.6469 3.17757 12.1529 3.17757 14.5625V35.9906C3.17757 38.4002 1.9651 39.9062 0.0493164 39.9062V40.3364H10.2154V39.9062C8.29951 39.9062 7.08748 38.4002 7.08748 35.9906V14.5625C7.08748 12.1529 8.29951 10.6469 10.2154 10.6469Z" fill="#D6D1C4"></path><path d="M38.4069 9.78649C56.9404 9.78649 56.9404 40.7666 38.4069 40.7666C19.8735 40.7666 19.8735 9.78649 38.4069 9.78649ZM36.0607 10.7763C22.3758 10.7763 27.0678 39.7773 40.7527 39.7773C54.4381 39.7773 49.7461 10.7763 36.0607 10.7763Z" fill="#D6D1C4"></path><path d="M74.9265 10.346L74.5355 10.2171C73.7145 10.6473 72.9324 10.8193 72.0721 10.8193C69.9607 10.8193 67.5756 9.78649 63.8612 9.78649C63.5586 9.78649 63.2673 9.79684 62.9806 9.81049V10.3403C66.8747 10.7192 68.3577 15.1651 71.8766 15.1651C74.1444 15.1651 75.3954 13.2719 74.9265 10.346ZM60.5468 10.1399C57.1399 10.9391 55.3372 13.0926 55.3372 16.3697C55.3372 26.7397 73.3231 22.4368 73.3231 32.2902C73.3231 36.722 69.7263 40.3364 65.0343 40.3364C60.694 40.3364 57.8396 37.2386 57.8396 32.2043C57.8396 29.8375 58.4655 27.5571 59.6382 26.0512L59.3647 25.7499C56.2369 26.6537 54.1641 29.4073 54.1641 32.7204C54.1641 37.6258 58.661 40.7666 64.995 40.7666C72.2286 40.7666 76.4124 36.6361 76.4124 30.6119C76.4124 18.048 58.2306 22.3079 58.2306 14.4766C58.2306 12.7822 59.0654 11.3436 60.5468 10.6866V10.1399Z" fill="#D6D1C4"></path><path d="M90.6447 35.9906C90.6447 38.4002 91.8568 39.9062 93.7726 39.9062V40.3364H83.6066V39.9062C85.5228 39.9062 86.7348 38.4002 86.7348 35.9906V14.5625C86.7348 12.2388 85.6006 10.6469 83.9193 10.6469C81.1042 10.6469 78.2108 15.38 77.8198 20.6297H77.4287L78.2108 10.2167H99.1684L99.9504 20.6297H99.5593C99.1684 15.38 96.275 10.6469 93.4598 10.6469C91.7785 10.6469 90.6447 12.2388 90.6447 14.5625V35.9906Z" fill="#D6D1C4"></path><path d="M52.762 0.367079L52.446 0.203439C52.1369 0.77786 51.6968 1.27957 51.0169 1.67296C48.1264 3.34421 43.5573 2.3251 40.3914 1.48411C40.1829 1.43369 40.0214 1.38822 39.7541 1.30808C37.457 0.699755 35.1725 0.115428 32.7496 0.145972C30.9908 0.126541 29.5159 0.387335 28.3525 0.939467C27.7396 1.15969 26.7527 2.05484 26.8152 2.02176C25.8782 2.9975 25.7224 4.11783 26.4631 5.02785C27.2119 5.94777 28.4438 6.04569 29.4518 5.19441C30.9794 3.90333 28.9099 2.23664 30.145 1.19321C30.2408 1.11174 30.3527 1.03986 30.4809 0.976234C30.7941 0.820024 31.1429 0.752206 31.4913 0.742745C34.2301 0.667942 36.7155 1.73499 39.0171 2.97147C39.2491 3.11402 39.2572 3.13015 39.4292 3.22769C42.1502 4.72159 44.6875 6.37176 47.047 6.49159C48.1552 6.54328 49.1644 6.25645 50.0483 5.74527C51.8846 4.68362 53.0354 2.63301 52.762 0.367079Z" fill="#D6D1C4"></path><path d="M2.24684 50.1789H3.72252V49.7107H0.213379V50.1789H1.68906V54.0826H2.24684V50.1789ZM7.02398 51.6469V49.7107H6.46664V54.0826H7.02398V52.1151H9.45092V54.0826H10.0087V49.7107H9.45092V51.6469H7.02398ZM15.9086 52.1151V51.6469H13.7113V50.1789H16.0401V49.7107H13.1535V54.0826H16.1053V53.614H13.7113V52.1151H15.9086ZM21.0387 49.7107H20.4156L18.6775 54.0826H19.2348L19.6611 52.9895H21.7931L22.2195 54.0826H22.7772L21.0387 49.7107ZM20.7438 50.3037L21.6094 52.5209H19.8449L20.7109 50.3037H20.7438ZM26.5796 50.1789H28.0554V49.7107H24.5462V50.1789H26.0219V54.0826H26.5796V50.1789ZM32.7603 52.3275C33.1453 52.2899 33.4503 52.1535 33.6755 51.9183C33.9006 51.6832 34.0133 51.3844 34.0133 51.022C34.0133 50.7641 33.9541 50.536 33.8361 50.3381C33.718 50.1405 33.5509 49.9863 33.3343 49.876C33.1177 49.7657 32.863 49.7107 32.5701 49.7107H30.7991V54.0826H31.3569V52.3337H32.1437L33.4556 54.0826H34.0787L32.7603 52.3275ZM32.5372 50.1789C32.826 50.1789 33.0512 50.2562 33.213 50.41C33.3748 50.5641 33.4556 50.7682 33.4556 51.022C33.4556 51.2762 33.3748 51.4803 33.213 51.634C33.0512 51.7882 32.826 51.8651 32.5372 51.8651H31.3569V50.1789H32.5372ZM39.7109 52.1151V51.6469H37.5131V50.1789H39.8419V49.7107H36.9558V54.0826H39.9076V53.614H37.5131V52.1151H39.7109ZM46.762 49.7107H46.2042V54.0826H46.762V49.7107ZM50.4647 50.3661H50.4975L52.7934 54.0826H53.5803V49.7107H53.023V53.4268H52.9902L50.6942 49.7107H49.9073V54.0826H50.4647V50.3661ZM60.6315 51.6469V49.7107H60.0741V54.0826H60.6315V52.1151H63.0588V54.0826H63.6162V49.7107H63.0588V51.6469H60.6315ZM68.6172 54.145C69.0237 54.145 69.3835 54.0587 69.6962 53.8855C70.0086 53.7132 70.2515 53.4578 70.4244 53.1205C70.5968 52.7833 70.6831 52.3754 70.6831 51.8964C70.6831 51.4179 70.5968 51.0096 70.4244 50.6724C70.2515 50.3351 70.0086 50.0802 69.6962 49.9074C69.3835 49.7347 69.0237 49.6479 68.6172 49.6479C68.2104 49.6479 67.8506 49.7347 67.5379 49.9074C67.2255 50.0802 66.9825 50.3351 66.8101 50.6724C66.6374 51.0096 66.5509 51.4179 66.5509 51.8964C66.5509 52.3754 66.6374 52.7833 66.8101 53.1205C66.9825 53.4578 67.2255 53.7132 67.5379 53.8855C67.8506 54.0587 68.2104 54.145 68.6172 54.145ZM68.6172 53.6764C68.3195 53.6764 68.0574 53.6077 67.8299 53.4701C67.6023 53.3329 67.4255 53.1309 67.2985 52.8647C67.1716 52.5982 67.1082 52.2754 67.1082 51.8964C67.1082 51.5175 67.1716 51.1947 67.2985 50.9286C67.4255 50.662 67.6023 50.4599 67.8299 50.3228C68.0574 50.1852 68.3195 50.1165 68.6172 50.1165C68.9146 50.1165 69.1766 50.1852 69.4042 50.3228C69.6314 50.4599 69.8086 50.662 69.9356 50.9286C70.0621 51.1947 70.1258 51.5175 70.1258 51.8964C70.1258 52.2754 70.0621 52.5982 69.9356 52.8647C69.8086 53.1309 69.6314 53.3329 69.4042 53.4701C69.1766 53.6077 68.9146 53.6764 68.6172 53.6764ZM75.0904 50.1789H76.5665V49.7107H73.0569V50.1789H74.533V54.0826H75.0904V50.1789ZM82.0653 52.1151V51.6469H79.8675V50.1789H82.1963V49.7107H79.3102V54.0826H82.262V53.614H79.8675V52.1151H82.0653ZM87.9948 53.614H85.6661V49.7107H85.1087V54.0826H87.9948V53.614ZM92.1238 54.145C92.4694 54.145 92.7688 54.0876 93.0227 53.9731C93.2762 53.8586 93.4685 53.7066 93.5999 53.5173C93.7309 53.3276 93.7966 53.1205 93.7966 52.8957C93.7966 52.625 93.7277 52.4097 93.5901 52.2494C93.4523 52.089 93.2851 51.9704 93.0884 51.8931C92.8912 51.8163 92.6333 51.7402 92.314 51.6654C92.0431 51.5989 91.8309 51.5385 91.678 51.4844C91.5246 51.4303 91.3969 51.351 91.2943 51.2468C91.1912 51.1431 91.1401 51.0055 91.1401 50.8348C91.1401 50.6224 91.2253 50.4496 91.3957 50.3162C91.5665 50.1831 91.809 50.1165 92.1238 50.1165C92.3907 50.1165 92.6093 50.1694 92.7797 50.2756C92.9505 50.3818 93.0706 50.5265 93.1407 50.71H93.6981C93.6149 50.3686 93.436 50.1062 93.1602 49.9227C92.8848 49.7396 92.5392 49.6479 92.1238 49.6479C91.8046 49.6479 91.5291 49.7 91.2975 49.8041C91.0655 49.9082 90.8886 50.0509 90.7661 50.2318C90.6436 50.4133 90.5824 50.6141 90.5824 50.8348C90.5824 51.122 90.6546 51.3501 90.799 51.5187C90.9434 51.6873 91.1158 51.8113 91.317 51.8903C91.5182 51.9692 91.7831 52.0465 92.1108 52.1213C92.3732 52.1837 92.5777 52.2411 92.7241 52.2932C92.8705 52.3452 92.9931 52.4192 93.0916 52.5147C93.1898 52.6105 93.2388 52.7374 93.2388 52.8957C93.2388 53.1246 93.144 53.3123 92.9537 53.4578C92.7635 53.6036 92.4869 53.6764 92.1238 53.6764C91.8439 53.6764 91.609 53.6152 91.4188 53.492C91.2286 53.3693 91.0918 53.1916 91.0087 52.9581H90.4513C90.5345 53.3247 90.7211 53.614 91.0119 53.8264C91.3028 54.0388 91.6735 54.145 92.1238 54.145Z" fill="#D6D1C4"></path></g></svg> 