<?xml version='1.0' encoding='UTF-8'?><svg width="204" height="39" viewBox="0 0 204 39" fill="none" xmlns="http://www.w3.org/2000/svg">
<path d="M91.92 27.9025L75.1787 27.8992L82.3671 10.4633H99.0872L97.4127 14.5808H86.7969L85.7651 17.0856H95.3393L93.7613 20.8675H84.1871L82.9869 23.7408H93.6354L91.92 27.9025Z" fill="white"/>
<path d="M181.642 27.9008L184.551 20.9117L181.073 10.4633H187.617L189.454 16.1377L195.991 10.4633H203.302C203.302 10.4633 191.123 20.8954 190.391 21.5224L187.742 27.9008H181.642Z" fill="white"/>
<path d="M112.913 27.9024H106.966C106.966 27.9024 107.742 25.815 108.063 24.9506C108.459 23.8799 108.463 23.0547 108.078 22.4997C107.598 21.8105 106.617 21.704 106.074 21.7024H102.415L99.8491 27.9008H93.6582L100.914 10.4615H112.475C114.551 10.4779 116.059 11.0722 116.955 12.2281C117.683 13.1678 117.758 14.1943 117.763 14.4874C117.835 18.0368 114.03 19.4415 112.862 19.7885C113.462 20.1045 115.333 21.3668 114.257 24.2679C113.763 25.6071 112.913 27.9024 112.913 27.9024ZM103.999 17.8763L107.813 17.8829H107.852C109.252 17.8829 110.476 17.4867 111.127 16.8236C111.464 16.4798 111.631 16.0918 111.621 15.6678C111.608 14.8705 110.98 14.4104 109.901 14.4022H105.438L103.999 17.8763Z" fill="white"/>
<path d="M175.841 27.9024H169.974C169.974 27.9024 170.71 25.6906 170.981 24.9506C171.377 23.8799 171.382 23.0547 170.996 22.4997C170.517 21.8105 169.534 21.704 168.993 21.7024H165.333L162.776 27.9008H156.57L163.832 10.4615H175.403C180.348 10.4992 180.665 13.821 180.68 14.4874C180.749 18.0351 176.943 19.4415 175.778 19.7885C176.374 20.1045 178.245 21.3668 177.171 24.2679C176.682 25.6054 175.841 27.9024 175.841 27.9024ZM166.918 17.8763L170.731 17.8812H170.771C172.17 17.8812 173.397 17.485 174.047 16.822C174.384 16.4782 174.551 16.0902 174.541 15.6661C174.528 14.8688 173.9 14.4071 172.821 14.4006H168.359L166.918 17.8763Z" fill="white"/>
<path d="M125.004 28.3396C117.873 28.3396 116.959 23.9945 116.897 22.1282C116.812 19.5856 117.97 16.8761 120.069 14.697C122.869 11.7927 127.001 10.1227 131.408 10.1129H131.445C135.44 10.1129 137.389 11.5274 138.323 12.7128C139.242 13.8817 139.569 15.3732 139.219 16.8057L139.183 16.9514L133.215 16.9792L133.238 16.7615C133.295 16.1737 133.136 15.6531 132.778 15.2553C132.271 14.697 131.39 14.3876 130.294 14.3876H130.275C128.59 14.3941 126.728 15.288 125.294 16.7795C123.987 18.14 123.264 19.751 123.315 21.2015C123.377 23.0548 124.551 24.0764 126.618 24.0764H126.666C128.595 24.0617 130.643 22.7748 131.532 21.0149L131.586 20.9101L137.834 20.8724L137.687 21.1589C136.557 23.3773 134.951 25.1209 132.914 26.3422C130.746 27.6405 128.137 28.3151 125.16 28.3396C125.106 28.3396 125.055 28.3396 125.004 28.3396Z" fill="white"/>
<path d="M53.929 27.9025L47.9834 27.9008L55.3598 10.4633H64.1818L63.3953 20.9903L71.4667 10.4633H80.4914L73.2622 27.9025L67.3885 27.8992L71.9573 17.0218L63.0568 27.9025L58.3408 27.9008L58.6532 16.5306L53.929 27.9025Z" fill="white"/>
<path d="M145.887 28.3919C143.087 28.3919 140.733 27.3523 139.591 25.612C138.62 24.1369 138.561 22.318 139.418 20.3517L143.58 10.4632H149.447L145.207 20.5809C144.764 21.6631 144.749 22.5652 145.167 23.189C145.578 23.798 146.405 24.1336 147.498 24.1336L147.542 24.132C149.596 24.1172 151.131 22.9303 152.101 20.6071L156.323 10.4615H162.146L157.986 20.4843C156.894 23.1137 155.456 25.0161 153.595 26.3012C151.604 27.6781 149.118 28.3608 145.997 28.3903L145.887 28.3919Z" fill="white"/>
<path d="M191.213 25.2666C191.934 25.2666 192.539 25.8363 192.539 26.5829C192.539 27.3442 191.934 27.9139 191.213 27.9139C190.487 27.9139 189.879 27.3442 189.879 26.5829C189.879 25.8347 190.487 25.2666 191.213 25.2666ZM191.213 27.7191C191.825 27.7191 192.297 27.2312 192.297 26.5829C192.297 25.9493 191.825 25.4614 191.213 25.4614C190.593 25.4614 190.121 25.9493 190.121 26.5829C190.121 27.2312 190.593 27.7191 191.213 27.7191ZM190.697 25.8151H191.293C191.661 25.8151 191.835 25.9608 191.835 26.2571C191.835 26.5371 191.658 26.6533 191.427 26.6778L191.869 27.3605H191.611L191.19 26.6959H190.935V27.3605H190.695V25.8151H190.697ZM190.937 26.501H191.189C191.4 26.501 191.594 26.4912 191.594 26.2456C191.594 26.041 191.418 26.0082 191.254 26.0082H190.937V26.501Z" fill="white"/>
<path d="M30.171 22.2557C28.297 22.2557 26.7861 23.4836 24.2352 25.1666C22.3547 26.4224 20.7652 27.5078 18.7556 27.5078C17.3231 27.5078 16.7394 26.7662 15.0502 26.7662C13.7453 26.7662 12.6121 27.3654 11.1943 28.292C11.1665 28.292 11.1453 28.3067 11.124 28.3215C10.5828 28.6636 9.51171 29.3627 8.7497 29.849C7.39575 30.7052 6.16443 31.3486 4.96582 31.6187C5.94204 32.29 7.10304 33.4458 9.3858 33.4458C9.85511 33.4458 10.3113 33.3607 10.761 33.2166C11.922 32.8466 13.4624 31.7628 14.3945 31.1489C16.5399 29.7229 17.8431 28.865 19.8871 28.865C21.2558 28.865 22.3252 29.6214 23.5713 29.6214C25.5744 29.6214 27.2194 28.1807 29.5235 26.6385C31.5691 25.2698 35.3661 22.9434 35.3661 22.9434C32.5371 23.3395 32.1431 22.2557 30.171 22.2557Z" fill="white"/>
<path d="M34.3395 17.8747C32.4655 19.1173 30.8908 20.2158 28.8877 20.2158C27.4781 20.2158 26.8927 19.4595 25.2101 19.4595C23.3361 19.4595 21.8186 20.6873 19.2759 22.3835C17.3856 23.6244 15.8043 24.7099 13.7947 24.7099C12.3638 24.7099 11.7784 23.9682 10.0811 23.9682C9.06399 23.9682 8.14336 24.2105 7.11808 24.8245C6.62588 25.1536 4.84514 26.3667 4.73067 26.4518C2.99244 27.593 1.47496 28.5065 0 28.8339C0.976222 29.4904 2.1454 30.6594 4.42489 30.6594C5.44362 30.6594 6.37079 30.2747 7.33066 29.7033C7.58902 29.5608 9.20625 28.5065 9.43354 28.3493C11.5708 26.9364 12.874 26.0671 14.9279 26.0671C16.2965 26.0671 17.3578 26.8218 18.612 26.8218C20.6135 26.8218 22.252 25.3664 24.5544 23.8405C26.6998 22.4293 28.003 21.5583 30.0487 21.5583C31.4157 21.5583 32.4279 22.3147 33.6756 22.3147C34.6093 22.3147 35.458 21.9987 36.3328 21.5141L38.7055 15.6072C37.4742 15.8495 36.2412 16.6206 34.3395 17.8747Z" fill="white"/>
<path fill-rule="evenodd" clip-rule="evenodd" d="M42.1414 7.35913H32.0227L26.2864 14.3941L26.1229 14.4088L26.1948 7.35913H17.2371L10.4902 23.3265C11.1754 23.3969 11.6807 23.5672 12.1434 23.726C12.6356 23.8979 13.0559 24.0403 13.6478 24.0403C15.0312 24.0403 16.1988 23.469 17.4889 22.67L20.8804 13.952H21.0652L21.1714 20.2306C22.5401 19.3596 23.7011 18.7899 25.0616 18.7899C26.0313 18.7899 26.687 19.0175 27.2561 19.2172C27.5929 19.3318 27.8905 19.4464 28.2323 19.4873L33.1625 13.7654H33.3898L31.1381 18.9438C31.9508 18.5738 32.7651 18.0319 33.6759 17.4327L33.8771 17.2903C35.8295 16.0067 37.1099 15.193 38.4573 14.9507L38.992 14.8509L42.1414 7.35913Z" fill="white"/>
<path d="M6.75996 24.4349L6.78286 24.4201C6.98235 24.3006 7.17858 24.1942 7.3748 24.0993C6.89896 22.5488 6.64223 20.9051 6.64223 19.2008C6.64223 10.0015 14.1184 2.51634 23.3067 2.51634C27.6269 2.51634 31.5678 4.16989 34.5308 6.87942H38.0023C34.4817 2.67679 29.2 0 23.305 0C12.7318 0 4.12891 8.61319 4.12891 19.2008C4.12891 21.4061 4.50337 23.5262 5.19016 25.499C5.77066 25.1028 6.48525 24.6182 6.75996 24.4349Z" fill="white"/>
<path d="M39.5018 14.9475L39.5182 14.9442L39.4593 15.0915C39.7929 16.4062 39.9711 17.783 39.9711 19.2008C39.9711 28.4018 32.4949 35.8853 23.3066 35.8853C19.5538 35.8853 16.0872 34.6361 13.2991 32.5324C12.5061 33.0366 11.6263 33.5441 10.8643 33.7864C10.861 33.7881 10.8578 33.7881 10.8545 33.7897C14.2067 36.663 18.558 38.4 23.3066 38.4C33.8816 38.4 42.4844 29.7868 42.4844 19.1992C42.4844 16.4979 41.9235 13.9242 40.913 11.5896L39.5018 14.9475Z" fill="white"/>
</svg>
