<svg width="249" height="61" viewBox="0 0 249 61" fill="none" xmlns="http://www.w3.org/2000/svg">
<g clip-path="url(#clip0_4_90)">
<path d="M63.0578 19.3461H75.5386C80.5078 19.3461 82.1256 22.4036 82.1256 25.6342C82.1256 28.8648 80.1611 31.8646 75.5963 31.8646H67.2758V39.5949H63V19.3461H63.0578ZM67.3336 28.6917H74.1518C76.5786 28.6917 77.8498 28.0572 77.8498 25.6342C77.8498 23.2113 76.1164 22.519 74.4407 22.519H67.2758V28.6917H67.3336ZM84.7836 19H88.7127V22.1729H84.7836V19ZM84.7836 24.5381H88.7127V39.5949H84.7836V24.5381ZM93.2196 27.4226H90.0995V24.5958H93.2196V19.923H97.1488V24.5958H101.251V27.4226H97.1488V34.2876C97.1488 36.0182 97.2066 36.9412 98.5933 36.9412C99.9801 36.9412 100.442 36.9412 101.425 36.9412V39.768C100.385 39.8834 99.6334 39.9987 98.42 39.9987C93.6241 39.9987 93.2774 38.2681 93.2774 35.4413V27.4226H93.2196ZM116.448 29.8455C116.159 28.2879 114.541 27.0187 112.288 27.0187C108.647 27.0187 107.087 29.4994 107.087 32.0954C107.087 34.6914 108.532 37.172 111.883 37.172C115.234 37.172 115.754 35.9605 116.563 33.826H120.666C119.741 40.0564 113.385 40.1718 112.288 40.1718C105.527 40.1718 102.985 36.249 102.985 32.0954C102.985 27.9418 106.452 24.0189 112.288 24.0189C118.123 24.0189 119.741 24.7689 120.55 29.8455H116.448ZM123.035 19H126.964V26.8457C128.235 25.2304 130.258 24.192 132.915 24.192C135.573 24.192 139.329 25.3458 139.329 29.384V39.5949H135.4V30.6532C135.4 29.0379 134.88 27.1918 131.644 27.1918C128.409 27.1918 126.964 28.3456 126.964 31.5185V39.5949H123.035V19ZM189.195 36.1336C189.195 36.9412 189.772 36.9989 190.061 36.9989C190.408 36.9989 191.044 36.9989 191.332 36.9412V39.7103C190.581 39.8257 189.888 40.0564 188.559 40.0564C186.017 40.0564 185.728 38.6719 185.612 38.1527C184.861 38.9027 182.954 40.2295 178.563 40.2295C174.171 40.2295 172.438 38.4988 172.438 35.499C172.438 32.4992 176.714 30.9993 179.198 30.7685C184.803 30.2493 185.439 30.0186 185.439 28.8648C185.439 27.1341 183.474 26.7303 181.163 26.7303C178.852 26.7303 177.176 27.538 177.06 29.2109H173.247C173.825 25.2881 176.714 24.0766 181.221 24.0766C189.079 24.0766 189.31 27.1918 189.31 29.1532V36.249L189.195 36.1336ZM185.265 32.0954C184.11 32.5569 182.896 32.73 180.123 33.0184C177.176 33.3645 176.483 33.9991 176.483 35.2683C176.483 37.2297 178.274 37.6335 179.661 37.6335C181.741 37.6335 185.323 36.8259 185.323 33.5376V32.0954H185.265ZM194.279 27.4226H191.159V24.5958H194.279V19.923H198.208V24.5958H202.311V27.4226H198.208V34.2876C198.208 36.0182 198.266 36.9412 199.653 36.9412C201.04 36.9412 201.502 36.9412 202.484 36.9412V39.768C201.444 39.8834 200.693 39.9987 199.48 39.9987C194.684 39.9987 194.337 38.2681 194.337 35.4413V27.4226H194.279ZM205.836 27.4226H202.715V24.5958H205.836V19.923H209.765V24.5958H213.867V27.4226H209.765V34.2876C209.765 36.0182 209.822 36.9412 211.209 36.9412C212.596 36.9412 213.058 36.9412 214.04 36.9412V39.768C213 39.8834 212.249 39.9987 211.036 39.9987C206.24 39.9987 205.893 38.2681 205.893 35.4413V27.4226H205.836ZM219.761 33.0761C219.819 34.7491 220.974 37.3451 224.903 37.3451C228.833 37.3451 228.601 36.422 229.41 35.2106H233.686C232.819 36.8836 230.797 40.2295 225.077 40.2295C219.356 40.2295 215.774 36.3067 215.774 32.2684C215.774 28.2302 219.472 24.0189 224.846 24.0189C230.219 24.0189 234.091 28.1148 234.091 32.4992V33.0761H219.876H219.761ZM229.873 30.5955C229.41 27.5956 226.695 26.6726 224.788 26.6726C222.881 26.6726 220.396 27.538 219.761 30.5955H229.873ZM236.691 24.5381H240.62V27.4803C241.66 25.8073 243.278 24.1343 246.282 24.1343C249.287 24.1343 247.323 24.1343 247.843 24.2497V28.1148C246.745 27.7687 246.051 27.7687 245.358 27.7687C243.393 27.7687 240.562 28.8071 240.562 32.3261V39.5949H236.633V24.5381H236.691ZM149.094 19L156.028 35.0952L162.731 19H168.855V39.5949H164.695V23.6728L157.704 39.5372H154.121L147.13 23.6728V39.5949H142.969V19H149.152H149.094Z" fill="white"/>
<path d="M42 14.6L24.9 7.99999L7.69999 14.6C7.69999 14.6 0.799994 18.7 0.899994 24.2C0.499994 21.2 0.199994 18.1 0.0999939 14.9L-0.100006 9.49999L24.9 -0.100006L36.3 4.29999C41.3 6.59999 42 14.6 42 14.6Z" fill="url(#paint0_linear_4_90)"/>
<path d="M36.6 51.5C34.3 53.9 31.7 56 28.8 57.7L24.9 60.1L21 57.7C9.89999 51.1 3.19999 39.8 0.899994 24.2C0.899994 18.7 7.69999 14.6 7.69999 14.6C8.19999 31.9 13.6 44.5 24.8 51.3C24.8 51.3 32.1 54.7 36.5 51.5H36.6Z" fill="url(#paint1_linear_4_90)"/>
<path d="M49.7 9.49999L49.5 14.9C49 30.9 44.7 43.2 36.6 51.6C32.1 54.8 24.9 51.4 24.9 51.4C36.1 44.6 41.5 32.1 42 14.7C42 14.7 41.3 6.69999 36.3 4.39999L49.7 9.49999Z" fill="url(#paint2_linear_4_90)"/>
<path d="M25.5 19.3C22.2 19.3 19.7 21.9 19.7 25V37.6C19.7 39.3 21 40.6 22.7 40.6V30.7H25.8C28.7 30.7 31.4 28.2 31.4 24.9C31.4 21.6 28.9 19.2 25.5 19.2V19.3ZM25.5 28.1H22.6V25.1C22.6 23.4 23.9 22.1 25.5 22.1C27.1 22.1 28.4 23.4 28.4 25.1C28.4 26.8 27.1 28.1 25.5 28.1Z" fill="white"/>
</g>
<defs>
<linearGradient id="paint0_linear_4_90" x1="40.4" y1="12.4" x2="-8.15195e-06" y2="11.9" gradientUnits="userSpaceOnUse">
<stop stop-color="white" stop-opacity="0.5"/>
<stop offset="1" stop-color="white"/>
</linearGradient>
<linearGradient id="paint1_linear_4_90" x1="7.29999" y1="15.6" x2="26.9" y2="58.8" gradientUnits="userSpaceOnUse">
<stop stop-color="white" stop-opacity="0.5"/>
<stop offset="1" stop-color="white"/>
</linearGradient>
<linearGradient id="paint2_linear_4_90" x1="27.7" y1="51.5" x2="46.4" y2="8.09999" gradientUnits="userSpaceOnUse">
<stop stop-color="white" stop-opacity="0.5"/>
<stop offset="1" stop-color="white"/>
</linearGradient>
<clipPath id="clip0_4_90">
<rect width="249" height="61" fill="white"/>
</clipPath>
</defs>
</svg>
